<svg xmlns="http://www.w3.org/2000/svg" x="0px" y="0px"
width="24" height="24"
viewBox="0 0 172 172"
style=" fill:#000000;"><g fill="none" fill-rule="nonzero" stroke="none" stroke-width="1" stroke-linecap="butt" stroke-linejoin="miter" stroke-miterlimit="10" stroke-dasharray="" stroke-dashoffset="0" font-family="none" font-weight="none" font-size="none" text-anchor="none" style="mix-blend-mode: normal"><path d="M0,172v-172h172v172z" fill="none"></path><g fill="#ffffff"><path d="M170.9502,51.2224l-21.5,-21.49862c-0.67887,-0.68583 -1.66569,-1.11972 -2.58252,-1.04974c-0.97282,0.01399 -1.88965,0.41989 -2.55452,1.11972l-58.31315,61.73855l-58.31315,-61.73855c-0.66488,-0.69982 -1.58171,-1.10572 -2.55453,-1.11972c-0.94482,-0.03499 -1.89665,0.36391 -2.58252,1.04974l-21.5,21.49862c-1.37874,1.37865 -1.39974,3.6041 -0.05599,5.01075l82.41667,85.99446c0.67887,0.70683 1.6097,1.10573 2.58952,1.10573c0.97982,0 1.91064,-0.3989 2.58952,-1.10573l82.41667,-85.99446c1.34375,-1.40665 1.32275,-3.63209 -0.05599,-5.01075z"></path></g></g></svg>